PathFileType	4	(X/Y/Z)	34_2_35_p1_0-670.trc
DataRate	CameraRate	NumFrames	NumMarkers	Units	OrigDataRate	OrigDataStartFrame	OrigNumFrames
60.0	60.0	7	27	m	60.0	587	671
Frame#	Time	RHip			RKnee			RAnkle			RBigToe			RSmallToe			RHeel			LHip			LKnee			LAnkle			LBigToe			LSmallToe			LHeel			Neck			Head			Nose			RShoulder			RElbow			RWrist			RThumb			RIndex			RPinky			LShoulder			LElbow			LWrist			LThumb			LIndex			LPinky			
		X1	Y1	Z1	X2	Y2	Z2	X3	Y3	Z3	X4	Y4	Z4	X5	Y5	Z5	X6	Y6	Z6	X7	Y7	Z7	X8	Y8	Z8	X9	Y9	Z9	X10	Y10	Z10	X11	Y11	Z11	X12	Y12	Z12	X13	Y13	Z13	X14	Y14	Z14	X15	Y15	Z15	X16	Y16	Z16	X17	Y17	Z17	X18	Y18	Z18	X19	Y19	Z19	X20	Y20	Z20	X21	Y21	Z21	X22	Y22	Z22	X23	Y23	Z23	X24	Y24	Z24	X25	Y25	Z25	X26	Y26	Z26	X27	Y27	Z27	
587	9.783333333333333	0.40096706421412565	0.4636976280881776	0.9572476523046769	0.4010047692135088	0.6418700117445412	1.3721961007221029	0.38667839142385185	0.7714385425267112	1.7460858494985894	0.3466297628972478	0.5902438405956577	1.786226782380728	0.40920188897393517	0.6018766834635432	1.787108677489991	0.35381004280654704	0.8816020836497694	1.8016170826485989	0.1577377757220962	0.5096576303067707	0.9754767422296622	0.16280394169274906	0.6431284610287297	1.3832814892114056	0.17536434433292528	0.7549692413210994	1.737090159240614	0.1986168663420168	0.5730790916419336	1.778663391689773	0.13944098271568528	0.5964854531024406	1.7769473647435825	0.1854919767701933	0.8328289862356035	1.7978682001601742	0.27685772304741274	0.4126818852270958	0.442828254795411	0.2821691554286752	0.2512129978759889	0.2076110510497819	0.26556521521438553	0.21852138832177428	0.365192121295991	0.43573849155709293	0.38357708837000165	0.5069881643227968	0.5042503257345994	0.5084315404743976	0.7540954860372723	0.5559920443197817	0.4606973795847533	0.9972646405538583	0.4991606816662974	0.40035331203660485	1.120338008563736	0.5109546987115443	0.4008258412169286	1.1243524608856579	0.5675763404595398	0.48066225248651817	1.128359628931888	0.11650819239612946	0.3931870489526556	0.5099108932283105	0.04709687490695044	0.4954810358761379	0.7696042344363121	0.05017331493776952	0.4441235055089981	1.006694948602732	0.09807772567382773	0.44557383225004366	1.1135180213573888	0.06818088231652406	0.38925239598268174	1.1399535744684943	0.027581002927216852	0.44778766674265025	1.1210888258237992
588	9.8	0.4004358335499462	0.46515461777275774	0.9605503334116363	0.40093824578463755	0.6418226288588756	1.3720233459385796	0.38673904957576605	0.771266758793051	1.7459814670489875	0.346446120284651	0.590490225407478	1.7862508363425267	0.40882548295487475	0.601850333494565	1.7870065810361355	0.3538967361577834	0.8813983432939789	1.8015462381863374	0.156703926057378	0.511989897154677	0.9751339333269546	0.16198861134511414	0.640147177965693	1.3779407262753678	0.17432976960135296	0.751588489002918	1.7308648182257789	0.19496453831657695	0.5555801952595203	1.7680259725665453	0.1391214175449152	0.5971184027020238	1.7769558081248678	0.18849867943987172	0.8138680129872846	1.788610014964111	0.2812069678515637	0.3995844782428871	0.44342436548431424	0.28510971937049234	0.25955095759755725	0.2033304156129484	0.2725521632586278	0.23061170871011788	0.3640746431608833	0.4396645083068321	0.3978353007174783	0.5136220645897404	0.49943263594882736	0.4943153087242441	0.7498395347746	0.5515068276048607	0.46130381819221866	1.001359638343637	0.5034883399303052	0.40118578106000097	1.1201579413967675	0.5109827398207888	0.400737995143651	1.1240682635371466	0.5632931732543877	0.48139031988366926	1.1282668634467765	0.11633271732117594	0.3935545846315743	0.5058975765516232	0.046951976484283856	0.49533593206383436	0.7694862524507793	0.04874503446179605	0.4293216937844558	1.0015658384936506	0.09811996487509754	0.4454815853131013	1.1132403851574848	0.06816873351058828	0.38939417015042044	1.140035994215884	0.022636480826331448	0.4602392500986195	1.1275712884769293
589	9.816666666666666	0.4004380013310636	0.46504302772192807	0.9607025981649558	0.40103519212378336	0.6415780966929104	1.3722166645603495	0.3821249136661854	0.7699702451715373	1.7458306403036166	0.3465344413519543	0.5904619483844681	1.7864016091778798	0.4089428482925042	0.6019310989499449	1.7871070237821853	0.35375842692140486	0.8809975525144096	1.801643060350364	0.15669366096426837	0.5118054546929169	0.9751389145384982	0.16189950125934507	0.640199109757357	1.378172856337742	0.17407857849763733	0.7565616790154466	1.7417964306817142	0.19573823766943418	0.558678296214945	1.7735434552316829	0.1380833500618994	0.5990713896709073	1.7812184384292242	0.18933639790496265	0.8167211058230802	1.7932086299899217	0.2813559725930957	0.3995200945832274	0.4434822793238709	0.29619160573430875	0.26029272310636253	0.20295801747825695	0.28089436804196094	0.2195347214032755	0.36164951854396216	0.43979383416165024	0.39839529483790914	0.5137668903562028	0.5041000076737048	0.5085983957215141	0.7542912564552422	0.5514426596642937	0.46148754583744084	1.0015339347103056	0.503105790969859	0.4022997768979809	1.1240593458080694	0.5110809525661902	0.400708890441944	1.1244827887149802	0.5634660476471917	0.4813532725524335	1.1287983924299767	0.11872961542487966	0.4035282228947942	0.5021305336519387	0.0475313157387816	0.49449786653992023	0.7658176236182905	0.0487416187867847	0.42934998799136925	1.0014513802823908	0.094831943463383	0.44301672935260056	1.1058960465543866	0.0680245657205275	0.38867646484575097	1.1391830945739907	0.022257245126607792	0.4593717883564201	1.1226916706469912
590	9.833333333333334	0.4003929613523864	0.46506546524237075	0.9608294363110914	0.4009313990296171	0.6420494586416378	1.3723009072900663	0.38611007668366076	0.7855830513421294	1.75094894017102	0.3430295071485546	0.5771073822734198	1.7816511593311495	0.4088700963618826	0.601199360807093	1.786828821307412	0.3539271038810757	0.8818867295097318	1.8015096964160593	0.15673518671576175	0.5116192766874015	0.9751332597050927	0.16188346235291007	0.6398753514482822	1.377912511462318	0.17316512794035258	0.7534358743583832	1.7359996374721167	0.19490310216141857	0.5556375907304899	1.7681712076402205	0.13802139413780576	0.5989846367596919	1.7810144964227168	0.18856282384058407	0.8145459867732949	1.7892733932509894	0.28143808882301563	0.39935071314804055	0.4434485586500184	0.303068925652218	0.25932095248670833	0.20288397519515275	0.2812935120350097	0.21958989301107382	0.36155160084776805	0.43974025361274915	0.39815811889102215	0.5138064481592131	0.5040914476746399	0.5084678802861323	0.7544651261863528	0.5513462725179765	0.4615354900137259	1.001615286269773	0.49884195164442446	0.4011709619670364	1.1241595953806869	0.5110188378405408	0.4007371068743156	1.1246897402548937	0.5631408081894619	0.48162300735552127	1.1289804051057066	0.11881628625139716	0.40354948759663345	0.5020837590904487	0.04727563611379481	0.4952340002349363	0.762266743228077	0.04350722214589995	0.4423596820911082	1.0031777780672793	0.09136251322482766	0.44006122001021697	1.1015910625261767	0.06749736927623265	0.3893484162011258	1.1347481064949063	0.02662137530520898	0.4489896752104083	1.1128804477988166
591	9.85	0.3930537735560841	0.46632774389522774	0.9614216164921554	0.4009348153165325	0.642308056823359	1.3723952574598808	0.3867040445964125	0.7713526943351643	1.746047980096227	0.34651976015639074	0.5901069903824048	1.7864088814836012	0.4090577927606658	0.6014293086475628	1.786946018082731	0.3539312836666437	0.8815465586072748	1.8014237744395265	0.15667235717342645	0.5116807348671377	0.9751739927827162	0.16187011761493703	0.6396924444911469	1.3779759632110726	0.1743374514316025	0.7518056080200658	1.7309729737800978	0.19492858093211732	0.5555380619827339	1.7681448494627232	0.1391189185068764	0.5972798097393788	1.7771222920834555	0.18987291330533793	0.8133599048737324	1.7834345989564386	0.28599439505668867	0.3855435761805507	0.4407426233233175	0.3034624299778226	0.26081299710288075	0.2056673501060974	0.2894132708866275	0.2088225791261766	0.3622857621891458	0.43987366348495155	0.39815636348731387	0.5139180589040768	0.5040526693223669	0.5083960439935103	0.7549145668885182	0.5515208564342609	0.46066075776711024	1.004940546007542	0.49876445635540523	0.40123440181643905	1.124364434320695	0.5112427578566189	0.3998051578574596	1.1286653322689606	0.5628168491824872	0.48235218940760466	1.1291417377857214	0.11886493234612369	0.4035701515222113	0.5021083387148139	0.04727164236613711	0.4951991869591596	0.762246284475742	0.04341623345360292	0.4426182783307675	1.0031881357392602	0.0908864455922419	0.4399561103700185	1.1015697904515698	0.06645112075566491	0.3879165972818208	1.1263475631748532	0.021386929287627907	0.4608502593918289	1.1148258753838678
592	9.866666666666667	0.39599731505531416	0.4807954485801638	0.9664197426604983	0.40097096108194136	0.6423895717079533	1.3725719210385683	0.38671479986423946	0.7714321710773719	1.7459903390540816	0.34655699275799284	0.5902389671080469	1.786467257822398	0.40915529062662137	0.6020097895202663	1.78720243655877	0.3578671722273708	0.882492799822074	1.8015020109096038	0.1565740009410796	0.5117668804050461	0.975145222533058	0.1619601162668728	0.6399230847278152	1.3778388292829633	0.1742915879809902	0.7517033041200548	1.7309914050464508	0.1949257135155964	0.5555550204547629	1.7683732318352388	0.138078316397498	0.5989203308475094	1.781048951139538	0.1889238669807244	0.8133976582549024	1.7933221501898244	0.28608352784577606	0.3856099655702531	0.44076667951127163	0.3114809443230856	0.24834550128062857	0.20360239404502098	0.29763898688557255	0.18625300626682703	0.3639894810186001	0.4400113891181997	0.3980085424772611	0.5139383174291104	0.5040049922899819	0.5084520125242821	0.754698500277392	0.5514348866708533	0.4605673681300115	1.0049131599573986	0.4985431729685072	0.4012389457965244	1.1244698760722474	0.5109889518427067	0.3999142089777412	1.129075071250315	0.5587262822964769	0.4819803196814877	1.1293025467402242	0.11910112006700642	0.4055092627410646	0.505314625420492	0.04715369821847559	0.49519388743599085	0.7622818007709437	0.04337309771403961	0.44231309334394414	1.0031293536446957	0.09022313119397438	0.4412734163266803	1.0981477499430614	0.0667674675263029	0.3879640778048758	1.118577109923935	0.02202921842388676	0.4597695084145763	1.1112486487213398
593	9.883333333333333	0.39292429453247363	0.46641601089194157	0.9613976961550034	0.40090809971659647	0.6423584598769866	1.3724767477791888	0.3774219103471101	0.7876119624305736	1.7522977601541265	0.346462428634788	0.5901868531328062	1.7860724440472016	0.40876970491836045	0.601938001180856	1.7869499675806744	0.35258078663918424	0.8830360085913895	1.8072120261977562	0.15252474438658378	0.5101627865141772	0.9753096747397788	0.16206783401212108	0.6396221396444428	1.3777454209991957	0.17428894194243763	0.7517108275863078	1.7309255306504439	0.19765116980217728	0.5701628957883996	1.7735802069753919	0.13925129081300058	0.5969440267896384	1.777074394954474	0.18343444463326558	0.8337664951217466	1.7962324655722246	0.2861479858540141	0.3855431495814711	0.4408235020886622	0.3185936929716152	0.2476223363992248	0.203219616536789	0.30463503293557587	0.18508252195794098	0.363663434092724	0.44003136473611293	0.397929752219358	0.514004557805995	0.5046950104902749	0.5106693070591801	0.7586480784150812	0.5476616755489847	0.45996046013731146	1.0048807009250091	0.4982915074635606	0.4012370727534428	1.1243740891261866	0.5107835367479897	0.3996007074082047	1.128843279677515	0.5587870397905567	0.48179276474627386	1.1293453817214791	0.11918534025050473	0.4055027967641726	0.5051491282795196	0.04704660656534126	0.49526376589493903	0.7621881340230119	0.042163114759548474	0.42758372994175614	0.9983454532682545	0.09035210981339457	0.44152289572235637	1.098107873773913	0.06613517946157803	0.38963099750116387	1.122756584130156	0.021605829528168995	0.4606939493804126	1.1115145754632907
